<svg class="w-36 h-36" xmlns="http://www.w3.org/2000/svg" id="Layer_1" data-name="Layer 1" viewBox="0 0 1043.79 1041.93"><defs><radialGradient id="radial-gradient" cx="384.47" cy="491.34" r="111.66" gradientUnits="userSpaceOnUse"><stop offset="0" stop-color="#f13359"/><stop offset="1" stop-color="#f7315b"/></radialGradient><style>.cls-1{fill:#f7315b}</style></defs><path d="M505.8 418.9c-16.6 8.55-29.51 16.45-36.91 30.43-3.58 6.75-7.88 3.2-12.16 1.41-23.51-9.79-47.76-17.24-73-20.78-9.88-1.39-12.83-6.44-14-15.35-6.86-52.15 13.83-93.67 51.52-127 23.44-20.72 49.89-38 75-56.8 9.09-6.78 15.54-22 25.34-20.89 9.31 1.07 16.86 14.3 25.94 21.2 21.63 16.43 44.47 31.37 65.45 48.57 38.64 31.68 63.36 70.86 61.77 123.19-.52 17.14-5.4 26.59-25.06 29.35a244.91 244.91 0 0 0-112.74 46.58c-11.83 8.79-20.57 10.69-30.55-.38-5.86-6.5-20.18-6.85-18.91-16.89 1.55-12.14 14.07-17.59 24.86-21.53 13-4.74 26.69-7.59 39.91-11.8 23-7.33 43-19.29 56.77-39.78 22.56-33.47 12.32-68.47-24.86-83.77-6.79-2.78-8.54-7.74-11.17-13-11-22.06-29-35.19-52.8-40.23-4.63-1-11.66-4.16-13.2 4.21-1.17 6.41-2.18 13.85 7.17 15.89 25.05 5.47 40.51 20.2 44.66 45.94 1.15 7.09 6.56 5.61 11.24 5.7 13.56.26 23.62 6.55 27.67 19.38 4.28 13.54.53 26.1-8.3 37.34-4.26 5.44-7.4 4.18-11.71.22A119.83 119.83 0 0 0 546 359.35c-7.1-3.22-8.44-9-10.54-15.48-12.82-39.72-57.81-53.25-90.94-27.68-28.49 22-26.94 58.36 4.28 76.13 17.19 9.78 35.92 16.87 57 26.58Zm246.6 105.24c46-2.92 84.26-15.48 116.75-45.26 7 10.27 5.21 20.39 3.74 30-2.23 14.54-7.48 28.47-17.66 39.07-24.09 25.07-32.37 56.13-34.77 89.14-4.84 66.66-36.2 117.33-90 155.75-45.36 32.42-93.35 57.74-150.21 62-4.21.32-8.41.85-12.62 1.08-1.62.09-3.27-.39-7.45-1 21.2-17.75 41-34.17 57.61-54 20-23.89 36.95-49.39 43-80.47 2.31-11.86 10-11 18.66-11.57 75.91-4.92 120.26-67.12 100.66-140.39-4.32-16.26-14.22-28.88-27.71-44.35Zm-469.22 6.69c-22.29 26.35-26.99 57.13-22.18 90.13 7.74 53 43.27 84.4 101 87.67 12.79.72 18.39 3.83 21.74 17.06 12.79 50.47 47.94 85.45 85.65 118.29 3.47 3 8.71 4.44 10.08 11.44-28-1-55.12-4.35-80.78-14.62-47.65-19.07-89.94-46.51-125.79-83.49-35.25-36.35-46.55-82.12-51.19-130.45-2.78-29-12.09-54.74-31.91-77.12-17.09-19.29-23.54-42.68-17.35-72.35 32.65 30 70.19 42.61 111 46.76Z" class="cls-1"/><path d="M288.08 563.18a74.14 74.14 0 0 1 6.74 6c68.53 76.72 157 100 255.61 93.55 65.55-4.3 125.11-25.79 174.86-70.34 6.74-6 12.67-12.94 19.28-19.12 3.26-3 4.63-10 10.49-8 4.94 1.72 4.67 8.15 5.75 12.57 14.68 59.65-24.79 109.79-87.63 111.12-28.35.59-56.8-3-85 1.87-20 3.43-38 11.9-54.74 22.95-7.95 5.26-14.78 6.38-23 .52-34.45-24.41-73.74-28.11-114.31-25.86-15.09.83-30.1 1.23-45.15-1.47-57.5-10.3-87.75-68.96-62.9-123.79Z" class="cls-1"/><path d="M532.67 847.68c0-18.09.75-32.47-.3-46.71-.57-7.8 6.86-21-10.87-20.76-16.77.22-9.12 12.67-9.66 19.81-1.11 14.77-.34 29.68-.34 49.4-48.45-36.18-89.43-72.21-107.95-127.62-3.49-10.43.43-14 11.17-13.74 27.61.57 55.21 3.3 77.49 20.49 21 16.21 38.05 15.26 58.88-.27 23-17.18 51.06-20.29 79.4-20.24 10.47 0 12 3.23 9.24 12.86-8.45 29.3-25.61 53.18-45.72 75.11-17.12 18.67-36.42 35-61.34 51.67Z" class="cls-1"/><path d="M259 411.51c10.37 9.27 19.26 18.17 29.11 25.85 26.11 20.35 56.16 30.23 89.1 31.1 50.61 1.33 95.22 19.54 136.7 47.25 6.93 4.63 9.94 8.39 2.23 14.82-3.22 2.68-5.87 6.09-8.57 9.34-9.17 11-17.13 29.62-27.66 31.18-11 1.63-24.09-13.62-36.73-20.67-36.67-20.47-75.64-31.29-118.11-27.72-8.92.75-18.1-.47-27.07-1.53-42-5-47.66-10.52-49.67-52.54-.89-19.22 3.19-38 10.67-57.08Z" style="fill:url(#radial-gradient)" transform="translate(-18.11 -19.04)"/><path d="M800.01 390.27c12.17 32.14 16 61.33 5.71 91.53-3.25 9.56-8.17 15.67-18.69 16.73-15.59 1.56-31.34 6.13-46.67 4.92-54.57-4.3-102.57 12.56-146.31 43-12.13 8.45-17.51 6.49-24.4-5-5.53-9.24-12.21-18.45-20.37-25.3-13.45-11.28-7.17-16.63 3.83-23.53 40.62-25.45 83.83-41.68 132.46-43.45 45.71-1.67 83.45-21.59 114.44-58.9Zm-445.55-41.55c-21.81-16.58-44.69-20.07-68.82-18.47-4.61.3-10.86-.47-8.7 7.3 1.55 5.59-.63 15.2 10.24 13.23 9.25-1.68 18.14.28 26.94 1.76 24.19 4.1 33.71 16.2 33.57 40.91 0 3 .07 6 .19 9.06 1.17 28.72 1.17 28.72-26.43 19.66-50.32-16.52-77.36-51.7-80.73-104.34-.72-11.34.68-17.82 15-17.46a155.56 155.56 0 0 0 90.86-25.85c14.29-9.32 29.75-16.75 47.56-7.93 7.06 3.49 11.12 6.65 3.47 14.27-19.07 18.94-33 41.4-43.15 67.86Z" class="cls-1"/><path d="M745.99 329.96c-18.06.28-34.14 3.18-47.94 12.77-7.12 4.95-10.11 5.88-13.75-3.64a157.31 157.31 0 0 0-39.06-58.24c-8.66-8.22-4.5-11.53 3.5-15.15 12.9-5.83 25.52-3.28 36.36 3.72 32.38 20.92 67.11 32.83 105.95 31.3 8.9-.35 9.11 5.35 9.4 11.88 2.36 54.46-42 106.45-96.81 113.92-8.2 1.12-11.51-.22-10.11-8.82a172.92 172.92 0 0 0 2.36-17.95c2.12-37.1 12.59-47.52 50.75-49.45 9-.46 21.25 4.36 19.36-12.12-1.8-15.29-14.65-4.54-20.01-8.22ZM320.23 523.32c47.16.08 87.44 19.06 125.07 45.48 5.42 3.81 6.46 8.17 3.92 13.92-2.67 6-5.42 12.07-7.87 18.21-12.73 31.84-12.7 31.84-44.79 17.44-37.47-16.82-69.72-40.36-94-73.91-3.74-5.18-10.66-11.07-7.84-17.16 3-6.52 12.06-2.31 18.27-3.89 2.3-.57 4.83-.09 7.24-.09Zm429.17 6.58c-2.71 4.44-5.24 9.25-8.39 13.64-29.12 40.65-69.21 66.21-115.48 83.22-8.21 3-13.89 2.29-16.51-7.2-1.28-4.61-3.53-9-5.26-13.44-13.2-34.36-13.26-34.47 19.52-53.47 35.69-20.69 73.56-33 115.47-28.55 3.88.41 10.31-2.75 10.65 5.8ZM565.07 399.27c-16 9.46-30.54 17.81-48.69 2.76-12.94-10.73-30.11-14.73-45.37-21.79-12.3-5.68-27.78-10.54-25-28.57 2.67-17.16 16.27-25.22 31.84-27.54 15.92-2.37 32.67 5.86 34.3 20.07 2.8 24.43 19.14 31.47 36.27 40.56 6.13 3.2 12.61 6.83 16.65 14.51Zm-44.43 243.32c-18.41 1-37.51-1.41-56.66-3.93-10.5-1.38-13.17-5.33-9-15.49 16.94-40.93 10.48-39.71 41.65-10.09 8.63 8.2 14.77 24.77 24.88 23.72 9.13-.94 16.71-15.6 25.25-23.93 30.85-30.11 24.23-29.74 40.9 8.82 5.34 12.35 1.61 15.74-10.27 17.2-18.5 2.28-37.04 4.54-56.75 3.7Z" class="cls-1"/><path d="M561.64 567.19c-2.2 6.54-7.67 9.65-12.1 13.4-9.56 8.11-16.32 23.79-27.78 24s-17.47-16.77-28-23.4c-14.24-9-12.13-17.67-2.8-28.87 35.53-42.63 26.15-42.76 61.77 1.55 3.38 4.19 6.02 8.96 8.91 13.32Zm-278.46-36.36.27-6.72c4.31 2.42 2.51 4.59-.27 6.72Z" class="cls-1"/><path d="M539.58 19.07c283-3.09 522.47 226.08 522.31 520.61C1061.73 834 824 1060.38 539.41 1061c-283.92.58-525.51-233.05-521.25-529.69 4.07-282.68 236-514.68 521.42-512.24Zm-238 524.08c-40.81-4.15-78.35-16.74-111-46.76-6.19 29.67.26 53.06 17.35 72.35 19.82 22.38 29.13 48.13 31.91 77.12 4.64 48.33 15.94 94.1 51.19 130.45 35.85 37 78.14 64.42 125.79 83.49 25.66 10.27 52.77 13.62 80.78 14.62-1.37-7-6.61-8.41-10.08-11.44-37.71-32.84-72.86-67.82-85.65-118.29-3.35-13.23-9-16.34-21.74-17.06-57.73-3.27-93.26-34.68-101-87.67-4.81-33-.15-63.74 22.18-90.09 2.76-2.13 4.56-4.3.25-6.72Zm222.33-105.21c-21.08-9.71-39.81-16.8-57-26.59-31.22-17.77-32.77-54.14-4.28-76.13 33.13-25.57 78.12-12 90.94 27.68 2.1 6.5 3.44 12.26 10.54 15.48a119.83 119.83 0 0 1 31.73 20.76c4.31 4 7.45 5.22 11.71-.22 8.83-11.24 12.58-23.8 8.3-37.34-4.05-12.83-14.11-19.12-27.67-19.38-4.68-.09-10.09 1.39-11.24-5.7-4.15-25.74-19.61-40.47-44.66-45.94-9.35-2-8.34-9.48-7.17-15.89 1.54-8.37 8.57-5.19 13.2-4.21 23.84 5 41.8 18.17 52.8 40.23 2.63 5.27 4.38 10.23 11.17 13 37.18 15.31 47.42 50.31 24.93 83.8-13.76 20.49-33.77 32.45-56.77 39.78-13.22 4.21-26.91 7.06-39.91 11.8-10.79 3.94-23.31 9.39-24.86 21.53-1.27 10 13.05 10.39 18.91 16.89 10 11.07 18.72 9.17 30.55.38a244.91 244.91 0 0 1 112.74-46.58c19.66-2.76 24.54-12.21 25.06-29.35 1.59-52.33-23.13-91.51-61.77-123.19-21-17.2-43.82-32.14-65.45-48.57-9.08-6.9-16.63-20.13-25.94-21.2-9.8-1.13-16.25 14.11-25.34 20.89-25.16 18.76-51.61 36.08-75 56.8C401.69 340 381 381.5 387.86 433.65c1.18 8.91 4.13 14 14 15.35 25.21 3.54 49.46 11 73 20.78 4.28 1.79 8.58 5.34 12.16-1.41 7.38-13.98 20.29-21.88 36.89-30.43Zm246.6 105.24c13.45 15.47 23.39 28.09 27.75 44.37 19.6 73.27-24.75 135.45-100.66 140.39-8.67.56-16.35-.29-18.66 11.57-6.05 31.08-23 56.58-43 80.47-16.58 19.84-36.41 36.26-57.61 54 4.18.57 5.83 1 7.45 1 4.21-.23 8.41-.76 12.62-1.08 56.86-4.23 104.85-29.55 150.21-62 53.76-38.42 85.12-89.09 90-155.75 2.4-33 10.68-64.07 34.77-89.14 10.18-10.6 15.43-24.53 17.66-39.07 1.47-9.63 3.3-19.75-3.74-30-32.53 29.76-70.78 42.32-116.79 45.24Zm-464.32 39C281.34 637.05 311.59 695.71 369 706c15.05 2.7 30.06 2.3 45.15 1.47 40.57-2.25 79.86 1.45 114.31 25.86 8.26 5.86 15.09 4.74 23-.52 16.74-11 34.76-19.52 54.74-22.95 28.23-4.85 56.68-1.28 85-1.87 62.84-1.31 102.31-51.45 87.63-111.14-1.08-4.42-.81-10.85-5.75-12.57-5.86-2-7.23 5-10.49 8-6.61 6.18-12.54 13.09-19.28 19.12-49.75 44.55-109.31 66-174.86 70.34-98.6 6.47-187.08-16.83-255.61-93.55a74.14 74.14 0 0 0-6.65-5.97Zm244.59 284.5c24.92-16.67 44.22-33 61.34-51.67 20.11-21.93 37.27-45.81 45.72-75.11 2.78-9.63 1.23-12.84-9.24-12.86-28.34-.05-56.38 3.06-79.4 20.24-20.83 15.53-37.88 16.48-58.88.27-22.32-17.15-49.88-19.88-77.49-20.45-10.74-.22-14.66 3.31-11.17 13.74 18.52 55.41 59.5 91.44 108 127.62 0-19.72-.77-34.63.34-49.4.54-7.14-7.11-19.59 9.66-19.81 17.73-.23 10.3 13 10.87 20.76 1 14.24.25 28.62.25 46.71ZM259 411.51c-7.51 19.08-11.59 37.86-10.67 57.08 2 42 7.66 47.56 49.67 52.54 9 1.06 18.15 2.28 27.07 1.53 42.47-3.57 81.44 7.25 118.11 27.72 12.64 7 25.77 22.3 36.73 20.67 10.53-1.56 18.49-20.14 27.66-31.18 2.7-3.25 5.35-6.66 8.57-9.34 7.71-6.43 4.7-10.19-2.23-14.82-41.48-27.71-86.09-45.92-136.7-47.25-32.94-.87-63-10.75-89.1-31.1-9.82-7.68-18.71-16.58-29.11-25.85Zm559.09-2.2c-31 37.31-68.73 57.23-114.44 58.9-48.63 1.77-91.84 18-132.46 43.45-11 6.9-17.28 12.25-3.83 23.53 8.16 6.85 14.84 16.06 20.37 25.3 6.89 11.52 12.27 13.48 24.4 5 43.74-30.47 91.74-47.33 146.31-43 15.33 1.21 31.08-3.36 46.67-4.92 10.52-1.06 15.44-7.17 18.69-16.73 10.3-30.2 6.49-59.39-5.68-91.53Zm-445.52-41.55c10.15-26.46 24.08-48.92 43.12-67.86 7.65-7.62 3.59-10.78-3.47-14.27-17.81-8.82-33.27-1.39-47.56 7.93a155.56 155.56 0 0 1-90.86 25.85c-14.29-.36-15.69 6.12-15 17.46 3.37 52.64 30.41 87.82 80.73 104.34 27.6 9.06 27.6 9.06 26.43-19.66-.12-3-.21-6-.19-9.06.14-24.71-9.38-36.81-33.57-40.91-8.8-1.48-17.69-3.44-26.94-1.76-10.87 2-8.69-7.64-10.24-13.23-2.16-7.77 4.09-7 8.7-7.3 24.16-1.6 47.04 1.89 68.85 18.47ZM764.1 349c5.36 3.69 18.21-7.06 20 8.23 1.89 16.48-10.33 11.66-19.36 12.12-38.16 1.93-48.63 12.35-50.75 49.45a172.92 172.92 0 0 1-2.32 17.94c-1.4 8.6 1.91 9.94 10.11 8.82 54.79-7.47 99.17-59.46 96.81-113.92-.29-6.53-.5-12.23-9.4-11.88-38.84 1.53-73.57-10.38-105.95-31.3-10.84-7-23.46-9.55-36.36-3.72-8 3.62-12.16 6.93-3.5 15.15a157.31 157.31 0 0 1 39.06 58.24c3.64 9.52 6.63 8.59 13.75 3.64C730 352.17 746 349.27 764.1 349ZM338.34 542.36c-2.41 0-4.94-.48-7.2.09-6.21 1.58-15.24-2.63-18.27 3.89-2.82 6.09 4.1 12 7.84 17.16 24.24 33.55 56.49 57.09 94 73.91 32.09 14.4 32.06 14.4 44.79-17.44 2.45-6.14 5.2-12.16 7.87-18.21 2.54-5.75 1.5-10.11-3.92-13.92-37.67-26.42-77.95-45.4-125.11-45.48Zm429.17 6.58c-.34-8.55-6.77-5.39-10.65-5.8-41.86-4.47-79.78 7.86-115.47 28.55-32.78 19-32.72 19.11-19.52 53.47 1.73 4.49 4 8.83 5.26 13.44 2.62 9.49 8.3 10.22 16.51 7.2 46.27-17 86.32-42.57 115.48-83.22 3.15-4.39 5.68-9.2 8.39-13.64ZM583.18 418.31c-4-7.68-10.52-11.27-16.62-14.51-17.13-9.09-33.47-16.13-36.27-40.56-1.63-14.24-18.38-22.44-34.29-20.07-15.57 2.32-29.17 10.38-31.84 27.54-2.81 18 12.67 22.89 25 28.57 15.26 7.06 32.43 11.06 45.37 21.79 18.11 15.05 32.64 6.7 48.65-2.76Zm-44.43 243.32c19.71.84 38.22-1.42 56.79-3.7 11.88-1.46 15.61-4.85 10.27-17.2-16.67-38.56-10-38.93-40.9-8.82-8.54 8.33-16.12 23-25.25 23.93-10.11 1-16.25-15.52-24.88-23.72-31.17-29.62-24.71-30.84-41.65 10.09-4.21 10.16-1.54 14.11 9 15.49 19.11 2.52 38.21 4.93 56.62 3.93Zm41-75.4c-2.89-4.36-5.53-9.13-8.89-13.31-35.62-44.31-26.24-44.18-61.77-1.55-9.33 11.2-11.44 19.89 2.8 28.87 10.51 6.63 16.44 23.62 28 23.4s18.22-15.9 27.78-24c4.41-3.76 9.88-6.87 12.08-13.41Z" style="fill:#f3f4f6" transform="translate(-18.11 -19.04)"/></svg>